# xmcd CD database file
#
# Track frame offsets:
#	150
#	11588
#	23654
#	37518
#	48946
#	61097
#	72241
#	85203
#	95277
#	106679
#	120247
#	134381
#	146561
#	157250
#	170651
#	184162
#	196862
#	209389
#	223632
#	234062
#	247788
#	259998
#	269457
#	279705
#	293563
#
# Disc length: 4093 seconds
#
# Revision: 1
# Processed by: cddbd v1.5.2PL0 Copyright (c) Steve Scherf et al.
# Submitted via: CDex 2.18
#
DISCID=550ffb19
DTITLE=Lefty Frizzell - Selected Sides - 1952-53
DYEAR=2010
DGENRE=Country
TTITLE0=I Know You're Lonesome (While Waiting For Me)
TTITLE1=Lost Love Blues
TTITLE2=That's Me Without You
TTITLE3=Send Her Here To Be Mine
TTITLE4=Lost Love Blues
TTITLE5=I'm An Old, Old Man (Tryin' To Live While I Can)
TTITLE6=You're Just Mine (Only In My Dreams)
TTITLE7=(Honey Baby Hurry) Bring Your Sweet Self Back To Me
TTITLE8=Time Changes Things
TTITLE9=California Blues (Blue Yodel No.4)
TTITLE10=Never No Mo' Blues
TTITLE11=We Crucified Our Jesus
TTITLE12=When It Comes To Measuring Love
TTITLE13=Sleep Baby, Sleep
TTITLE14=I'm Lonely and Blue
TTITLE15=Before You Go, Make Sure You Know
TTITLE16=Two Friends Of Mine In Love
TTITLE17=Hopeless Love
TTITLE18=Then I'll Come Back To You
TTITLE19=The Tragic Letter (The Letter That You Left)
TTITLE20=Two Hearts Broken Now
TTITLE21=You Can Always Count On Me
TTITLE22=I've Been Away Way Too Long
TTITLE23=Run 'Em Off
TTITLE24=The Darkest Moment (Is Just Before The Light Of Day)
EXTD=YEAR: 2010
EXTT0=
EXTT1=
EXTT2=
EXTT3=
EXTT4=
EXTT5=
EXTT6=
EXTT7=
EXTT8=
EXTT9=
EXTT10=
EXTT11=
EXTT12=
EXTT13=
EXTT14=
EXTT15=
EXTT16=
EXTT17=
EXTT18=
EXTT19=
EXTT20=
EXTT21=
EXTT22=
EXTT23=
EXTT24=
PLAYORDER=
